# xmcd
#
# Track frame offsets: 
#        150
#        21616
#        37536
#        53220
#        67161
#        78724
#        95420
#        105293
#        120151
#        136152
#        155362
#        167823
#        195107
#        208721
#        220504
#        232338
#
# Disc length: 3263 seconds
#
# Revision: 0
# Processed by: cddbd v1.5.2PL0 Copyright (c) Steve Scherf et al.
# Submitted via: ExactAudioCopy v0.99pb4
#
DISCID=cf0cbd10
DTITLE=Various Artist - The Best of Country Music
DYEAR=1995
DGENRE=Country
TTITLE0=Jonny Hill - Ruf Teddybär 1-4
TTITLE1=Linda Feller - Andere Mütter haben..
TTITLE2=Tanya Tucker - Oh what it did to me
TTITLE3=Tom Astor and Jordanaires - Ich bin kein Dichter kein Poet
TTITLE4=Greyhounds - Nimm es leicht
TTITLE5=Ben Steneker - Part of me
TTITLE6=Bobby Bars - West Virginia Woman
TTITLE7=Hanna and Daana - Hört er Country wird er wach
TTITLE8=Kenny Rogers - Lucille
TTITLE9=John Brack - Borderline
TTITLE10=Dickey Lee - Liebe die nie mehr vergeht
TTITLE11=The Jackys - Goin Back to Buemplix
TTITLE12=Linda Feller - Minuten im Fieber
TTITLE13=Restless Heart - You can depend on me
TTITLE14=Lucille Starr - Colinda
TTITLE15=Max Zwo - Gibt`s koane Mad`ln zum heiraten mehr
EXTD=
EXTT0=
EXTT1=
EXTT2=
EXTT3=
EXTT4=
EXTT5=
EXTT6=
EXTT7=
EXTT8=
EXTT9=
EXTT10=
EXTT11=
EXTT12=
EXTT13=
EXTT14=
EXTT15=
PLAYORDER=
